<svg width="330" height="330" viewBox="0 0 330 330" fill="none" xmlns="http://www.w3.org/2000/svg">
<circle cx="165" cy="165" r="165" fill="white"/>
<path fill-rule="evenodd" clip-rule="evenodd" d="M164.352 164.839L243.783 27.2616C220.417 13.7423 193.29 6 164.352 6C135.415 6 108.288 13.7423 84.9221 27.2616L164.352 164.839Z" fill="#D53D4E"/>
<path fill-rule="evenodd" clip-rule="evenodd" d="M164.839 163.844H6C6 222.632 37.9382 273.956 85.4083 301.421L164.839 163.844Z" fill="#E9D011"/>
<path fill-rule="evenodd" clip-rule="evenodd" d="M85.4083 26.5198C37.9382 53.9862 6 105.311 6 164.097H164.839L85.4083 26.5198Z" fill="#F2B632"/>
<path fill-rule="evenodd" clip-rule="evenodd" d="M243.275 26.5198L163.844 164.097H322.683C322.683 105.311 290.745 53.9862 243.275 26.5198" fill="#457697"/>
<path fill-rule="evenodd" clip-rule="evenodd" d="M84.9221 301.421C108.288 314.941 135.415 322.683 164.352 322.683C193.29 322.683 220.417 314.941 243.783 301.421L164.352 163.844L84.9221 301.421Z" fill="#B6BF26"/>
<path fill-rule="evenodd" clip-rule="evenodd" d="M163.844 163.844L243.275 301.421C290.745 273.956 322.683 222.632 322.683 163.844H163.844Z" fill="#A0C7CC"/>
<g opacity="0.6">
<path d="M173.16 54.1C172.91 53.9882 172.625 53.9838 172.372 54.0878C172.119 54.1917 171.919 54.3949 171.82 54.65C169.666 59.3523 164.157 61.4814 159.4 59.45C159.149 59.3388 158.863 59.3357 158.609 59.4417C158.356 59.5476 158.157 59.7531 158.06 60.01C157.951 60.2588 157.949 60.541 158.052 60.7918C158.156 61.0426 158.357 61.2405 158.61 61.34C160.035 61.9351 161.565 62.241 163.11 62.24C167.685 62.2971 171.854 59.6225 173.71 55.44C173.822 55.1901 173.826 54.9053 173.722 54.6521C173.618 54.3989 173.415 54.1993 173.16 54.1Z" fill="white"/>
<path d="M159.25 48.94C159.254 48.2021 158.812 47.5348 158.131 47.2505C157.45 46.9662 156.665 47.1213 156.143 47.6431C155.621 48.1649 155.466 48.9501 155.75 49.6311C156.035 50.3121 156.702 50.7541 157.44 50.75C158.44 50.75 159.25 49.9396 159.25 48.94V48.94Z" fill="white"/>
<circle cx="170.74" cy="48.94" r="1.81" fill="white"/>
<path fill-rule="evenodd" clip-rule="evenodd" d="M186 40.05C185.962 39.8356 185.906 39.6271 185.85 39.4199L185.85 39.4198C185.833 39.3564 185.816 39.2932 185.8 39.23C185.771 39.1179 185.745 39.0024 185.72 38.8863L185.72 38.8862C185.683 38.7226 185.647 38.5579 185.6 38.4C185.48 37.97 185.34 37.56 185.2 37.15L185.178 37.0815C185.125 36.9123 185.07 36.7373 185 36.57C184.82 36.08 184.62 35.57 184.41 35.15L184.26 34.8C184.02 34.31 183.77 33.8 183.5 33.36L183.35 33.08C183.11 32.68 182.86 32.3 182.6 31.92L182.26 31.41C182.163 31.2785 182.061 31.1518 181.958 31.0233C181.912 30.9661 181.866 30.9085 181.82 30.85C177.565 25.2587 170.936 21.9834 163.91 22C155.555 22.0293 147.932 26.7698 144.21 34.25C144.14 34.37 144.07 34.49 144.01 34.62C143.84 34.97 143.69 35.33 143.54 35.69L143.54 35.69C143.503 35.778 143.471 35.854 143.443 35.9224L143.443 35.9225C143.354 36.1342 143.296 36.2735 143.22 36.47C143.133 36.6959 143.039 36.9898 142.95 37.2663L142.95 37.2663L142.91 37.39C142.885 37.4675 142.859 37.5462 142.832 37.6264L142.832 37.6264C142.752 37.8669 142.667 38.12 142.6 38.39C142.568 38.5166 142.54 38.6296 142.514 38.7363C142.465 38.9332 142.422 39.109 142.37 39.31C142.29 39.62 142.24 39.82 142.19 40.08C140.282 41.1616 139.073 43.1578 139 45.35C139.004 47.5446 140.285 49.5362 142.28 50.45C144.839 60.3927 153.803 67.3423 164.07 67.3423C174.337 67.3423 183.301 60.3927 185.86 50.45C187.855 49.5362 189.136 47.5446 189.14 45.35C189.087 43.1572 187.898 41.1496 186 40.05ZM144.41 39.54C144.48 39.26 144.55 38.99 144.63 38.72C144.71 38.45 144.82 38.1 144.92 37.79C144.988 37.5789 145.042 37.442 145.098 37.3004L145.098 37.3004C145.125 37.234 145.151 37.1666 145.18 37.09C145.27 36.85 145.46 36.39 145.62 36.04C145.665 35.9265 145.717 35.8188 145.769 35.7081C145.786 35.6724 145.803 35.6365 145.82 35.6C149.218 28.6425 156.328 24.2719 164.07 24.38C170.027 24.3042 175.712 26.8668 179.6 31.38C179.92 31.75 180.22 32.15 180.51 32.55L180.89 33.1C180.938 33.174 180.987 33.2472 181.035 33.32L181.035 33.3201C181.156 33.5031 181.276 33.684 181.39 33.87L181.87 34.72C181.892 34.7629 181.915 34.8055 181.937 34.8478L181.937 34.848C182.025 35.0128 182.11 35.1751 182.19 35.35C182.217 35.4101 182.253 35.4844 182.293 35.5682L182.293 35.5682C182.4 35.7911 182.538 36.0811 182.64 36.35L182.91 36.99C183.03 37.31 183.14 37.63 183.25 37.99C183.302 38.1598 183.343 38.2806 183.379 38.3872L183.379 38.3872C183.419 38.5066 183.453 38.6079 183.49 38.74C183.56 38.99 183.66 39.35 183.73 39.65C183.763 39.7932 183.781 39.8726 183.794 39.9338L183.794 39.934C183.809 40.001 183.819 40.0464 183.84 40.13C179.66 41.48 176.54 38.47 174.62 35.62C174.277 35.0916 173.73 34.7294 173.11 34.62C172.476 34.5285 171.832 34.7021 171.33 35.1C161.83 42.72 148.06 40.7 144.32 40L144.333 39.9231C144.356 39.7788 144.376 39.6594 144.41 39.54ZM183.99 49.46C184.069 49.1153 184.323 48.8378 184.66 48.73C186.12 48.2349 187.098 46.8612 187.09 45.32C187.03 43.8777 186.238 42.5657 184.99 41.84C180.58 43.54 176.32 41.71 172.94 36.71C172.914 36.6668 172.87 36.6375 172.82 36.63C172.752 36.6159 172.682 36.6344 172.63 36.68C166.46 41.62 158.84 42.83 152.84 42.83C149.603 42.8448 146.375 42.5095 143.21 41.83C141.931 42.5526 141.115 43.8828 141.05 45.35C141.051 46.8812 142.029 48.241 143.48 48.73C143.817 48.8378 144.071 49.1153 144.15 49.46C146.285 58.7415 154.546 65.3188 164.07 65.3188C173.594 65.3188 181.855 58.7415 183.99 49.46Z" fill="white"/>
</g>
<g opacity="0.6">
<path fill-rule="evenodd" clip-rule="evenodd" d="M291.08 121.676L290.175 120.108C294.161 116.78 295.179 111.068 292.588 106.568C290.066 102.207 284.878 100.151 280.054 101.599C280.387 99.5338 279.224 97.519 277.269 96.775C280.938 93.3739 281.778 87.893 279.298 83.5487C276.504 78.7506 270.545 76.8259 265.473 79.0829L264.618 77.602C264.333 77.1094 263.703 76.9406 263.211 77.225C262.718 77.5095 262.549 78.1394 262.833 78.632L263.688 80.1129C259.043 83.4007 257.761 89.7376 260.763 94.5725C263.766 99.4075 270.014 101.068 275.021 98.3615C276.097 98.3353 277.116 98.8471 277.737 99.7262C278.183 100.702 278.115 101.836 277.556 102.752C272.636 105.859 271.039 112.29 273.933 117.338C276.889 122.413 283.373 124.174 288.489 121.289L289.304 122.701C289.587 123.191 290.214 123.359 290.704 123.076C291.195 122.793 291.363 122.166 291.08 121.676ZM287.586 119.444C285.602 120.63 283.223 120.966 280.988 120.377C278.753 119.788 276.85 118.322 275.709 116.313C274.023 113.609 273.946 110.202 275.508 107.425C277.07 104.648 280.021 102.944 283.207 102.98C286.393 103.016 289.305 104.786 290.804 107.598C291.975 109.589 292.294 111.969 291.689 114.198C291.083 116.428 289.604 118.319 287.586 119.444ZM262.218 84.406C260.656 87.1828 260.733 90.5902 262.419 93.2937C263.56 95.3035 265.463 96.7686 267.698 97.3578C269.933 97.947 272.312 97.6107 274.296 96.4248C276.314 95.3001 277.793 93.409 278.399 91.1793C279.004 88.9497 278.685 86.57 277.514 84.5787C276.015 81.7674 273.103 79.997 269.917 79.961C266.731 79.9251 263.78 81.6292 262.218 84.406Z" fill="white"/>
</g>
<g opacity="0.6">
<path d="M262.178 211.3C261.132 211.52 260.229 212.174 259.695 213.1C259.16 214.025 259.045 215.135 259.378 216.15C259.495 216.492 259.787 216.746 260.143 216.815C260.498 216.884 260.863 216.758 261.101 216.485C261.339 216.212 261.412 215.832 261.294 215.49C261.155 215.03 261.212 214.532 261.453 214.115C261.693 213.698 262.096 213.4 262.564 213.29C262.92 213.221 263.211 212.968 263.329 212.625C263.447 212.283 263.374 211.904 263.136 211.63C262.898 211.357 262.533 211.231 262.178 211.3Z" fill="white"/>
<path fill-rule="evenodd" clip-rule="evenodd" d="M282.648 204.644C281.751 204.189 280.83 203.781 279.89 203.421C279.434 201.776 278.138 200.497 276.488 200.063C274.837 199.628 273.079 200.102 271.872 201.309L271.256 201.935L269.742 201.858C267.547 201.633 265.329 201.875 263.235 202.569C262.068 199.625 259.93 197.168 257.174 195.606L253.866 193.696C253.388 193.42 252.776 193.584 252.5 194.062L239.6 216.406C239.324 216.884 239.488 217.495 239.966 217.772L243.274 219.682C246.024 221.272 249.236 221.871 252.375 221.379C252.904 224.05 254.125 226.535 255.916 228.585C254.738 230.86 255.549 233.658 257.761 234.95C258.703 235.5 259.806 235.709 260.884 235.541C265.757 237.881 269.882 238.577 273.495 236.898C274.883 236.312 276.189 235.549 277.381 234.627C279.92 232.465 282.034 229.848 283.615 226.91C288.615 218.25 292.506 215.07 292.548 215.036C292.974 214.708 293.064 214.102 292.752 213.664C291.666 212.176 290.451 210.787 289.121 209.513L287.444 207.978C286.541 207.219 285.597 206.511 284.614 205.86C283.98 205.421 283.324 205.015 282.648 204.644ZM260.196 231.992C260.826 232.308 261.489 232.555 262.173 232.729C261.277 233.636 259.882 233.827 258.776 233.192C257.708 232.576 257.177 231.327 257.472 230.13C257.487 230.144 257.505 230.155 257.524 230.16C258.34 230.874 259.237 231.488 260.196 231.992ZM251.996 213.135C251.278 212.72 250.714 212.082 250.389 211.319L245.917 209.464L241.832 216.54L244.274 217.95C246.633 219.319 249.393 219.831 252.086 219.4C251.936 217.429 252.152 215.447 252.723 213.555L251.996 213.135ZM248.632 204.762L251.373 206.875L251.348 206.918C251.054 207.19 250.802 207.504 250.602 207.85C250.401 208.197 250.255 208.572 250.168 208.962L250.138 209.014L246.942 207.689L248.632 204.762ZM254.265 209.965C254.569 209.435 254.904 208.922 255.267 208.43L254.837 208.194C253.993 207.722 252.928 207.976 252.387 208.777C252.115 209.199 252.028 209.714 252.145 210.203C252.262 210.691 252.573 211.111 253.007 211.364L253.432 211.609C253.678 211.045 253.956 210.497 254.265 209.965ZM261.332 203.364C259.559 204.22 257.958 205.393 256.608 206.826L255.881 206.406C255.162 205.992 254.328 205.822 253.504 205.923L249.657 202.986L253.732 195.928L256.174 197.338C258.537 198.697 260.361 200.826 261.341 203.369L261.332 203.364ZM275.712 218.318C277.806 216.645 278.891 214.011 278.581 211.349C278.175 207.592 275.077 205.157 271.572 204.288C266.397 202.996 260.938 204.78 257.525 208.88C256.381 210.219 255.493 211.758 254.905 213.417C253.061 218.423 254.246 224.042 257.952 227.879C258.861 228.808 259.912 229.587 261.066 230.185C263.294 231.29 265.915 231.263 268.12 230.114C270.325 228.964 271.848 226.83 272.217 224.371C272.291 223.835 272.33 223.294 272.332 222.752C272.35 221.299 273.123 219.96 274.372 219.218C274.837 218.946 275.285 218.645 275.712 218.318ZM279.561 206.811C279.663 206.606 279.75 206.394 279.823 206.177C279.881 205.999 279.927 205.818 279.963 205.634L280.478 205.862C281.132 206.17 281.788 206.514 282.398 206.878C285.528 208.792 288.294 211.246 290.569 214.125C289.153 215.478 285.873 218.999 281.883 225.91C280.41 228.637 278.449 231.07 276.098 233.09C275.11 233.922 273.976 234.563 272.754 234.981C269.971 236.042 266.927 235.855 263.305 234.387C263.587 234.143 263.837 233.865 264.049 233.558C264.178 233.375 264.29 233.181 264.384 232.978C265.762 232.988 267.126 232.71 268.389 232.161C270.329 231.331 271.947 229.896 273.003 228.07C273.536 227.147 273.909 226.141 274.109 225.094C274.249 224.287 274.333 223.472 274.363 222.654C274.406 221.991 274.755 221.386 275.308 221.017C276 220.586 276.662 220.108 277.289 219.586C278.094 218.892 278.776 218.069 279.308 217.149C281.072 214.075 281.053 210.292 279.258 207.236C279.328 207.096 279.406 206.96 279.493 206.829L279.561 206.811ZM273.364 202.644L274.361 203.058C275.423 203.505 276.403 204.125 277.262 204.894C277.308 204.921 277.369 204.983 277.433 205.048C277.536 205.153 277.648 205.266 277.715 205.248C277.824 205.219 277.894 205.259 277.954 205.294C278.23 204.106 277.697 202.878 276.641 202.269C275.585 201.659 274.255 201.811 273.364 202.644Z" fill="white"/>
<circle cx="263.693" cy="223.076" r="1.81" transform="rotate(120 263.693 223.076)" fill="white"/>
<circle cx="270.333" cy="211.575" r="1.81" transform="rotate(120 270.333 211.575)" fill="white"/>
<path d="M261.362 241.533V241.533C261.701 240.945 261.5 240.192 260.912 239.853V239.853C260.327 239.541 259.601 239.751 259.275 240.328V240.328C258.938 240.912 259.138 241.658 259.721 241.995V241.995C260.303 242.306 261.027 242.102 261.362 241.533V241.533Z" fill="white"/>
<path d="M273.86 254.707C275.741 254.225 277.351 253.007 278.327 251.328V251.328C280.351 247.812 279.148 243.321 275.637 241.288C275.06 241.02 274.374 241.238 274.055 241.789C273.737 242.34 273.892 243.043 274.412 243.409C276.751 244.766 277.553 247.759 276.206 250.103V250.103C274.815 252.395 271.865 253.182 269.517 251.888C267.674 250.796 266.749 248.637 267.23 246.549C267.619 244.969 266.918 243.323 265.51 242.508L265.19 242.323C264.612 242.056 263.926 242.273 263.608 242.824C263.29 243.375 263.445 244.078 263.965 244.445L264.285 244.63C264.751 244.906 264.979 245.456 264.845 245.98C264.123 249.122 265.517 252.37 268.292 254.01C269.979 254.98 271.985 255.231 273.86 254.707V254.707Z" fill="white"/>
</g>
<g opacity="0.6">
<path fill-rule="evenodd" clip-rule="evenodd" d="M144.398 292.502C144.64 292.017 145.114 291.739 145.698 291.739C145.98 291.739 146.207 291.789 146.39 291.898L164.66 301.712C164.825 301.834 165.021 301.834 165.155 301.834C165.281 301.834 165.411 301.834 165.614 301.731L183.921 291.95L183.938 291.941C184.105 291.841 184.331 291.791 184.612 291.791C185.147 291.791 185.639 292.085 185.917 292.561C186.291 293.269 186.014 294.168 185.304 294.562L165.83 304.98C165.439 305.214 164.872 305.214 164.463 304.971L145.004 294.508C144.302 294.137 144.03 293.236 144.398 292.502V292.502ZM165.155 280.023C168.097 280.023 170.49 277.629 170.49 274.687V270.032H179.854L179.854 292.012L165.155 299.844L150.457 292.012V270.032H159.821V274.687C159.821 277.629 162.214 280.023 165.155 280.023V280.023ZM168.608 274.687C168.608 276.592 167.06 278.141 165.155 278.141C163.252 278.141 161.703 276.592 161.703 274.687V270.032H168.608V274.687ZM142.566 294.19C142.83 295.041 143.405 295.75 144.193 296.187L163.591 306.592C164.556 307.135 165.806 307.135 166.764 306.596L186.227 296.185C187.011 295.749 187.587 295.041 187.849 294.19C188.117 293.325 188.026 292.419 187.593 291.64C186.991 290.556 185.842 289.856 184.665 289.856C184.071 289.856 183.539 290.002 183.106 290.274L181.788 290.985L181.779 268.958C181.689 268.505 181.257 268.15 180.794 268.15H149.568C149.023 268.15 148.628 268.547 148.628 269.092V290.985L147.297 290.268C146.754 289.996 146.234 289.856 145.751 289.856C144.465 289.856 143.337 290.549 142.822 291.64C142.389 292.419 142.298 293.325 142.566 294.19V294.19Z" fill="white"/>
<path fill-rule="evenodd" clip-rule="evenodd" d="M161.859 290.014C161.859 288.196 163.339 286.717 165.156 286.717C166.973 286.717 168.451 288.196 168.451 290.014C168.451 291.831 166.973 293.309 165.156 293.309C163.339 293.309 161.859 291.831 161.859 290.014M165.156 295.19C168.01 295.19 170.333 292.868 170.333 290.014C170.333 287.159 168.01 284.836 165.156 284.836C162.301 284.836 159.978 287.159 159.978 290.014C159.978 292.868 162.301 295.19 165.156 295.19" fill="white"/>
</g>
<g opacity="0.6">
<circle cx="59.5109" cy="234.966" r="1.72" transform="rotate(-120 59.5109 234.966)" fill="white"/>
<path d="M53.9016 221.831C53.5533 221.228 52.8756 220.894 52.1851 220.986C51.4946 221.078 50.9277 221.578 50.7494 222.251C50.5711 222.924 50.8165 223.639 51.371 224.06C51.9255 224.482 52.6795 224.528 53.2807 224.176C54.0973 223.698 54.3747 222.651 53.9016 221.831V221.831Z" fill="white"/>
<path fill-rule="evenodd" clip-rule="evenodd" d="M48.3025 233.193C43.483 232.92 39.138 230.201 36.7859 225.986C34.0709 221.283 34.3349 212.32 43.4108 207.08C47.6544 204.63 53.6233 204.429 61.1391 206.487C67.651 208.407 73.9131 211.09 79.795 214.48C79.9515 214.568 80.0815 214.696 80.1712 214.851C80.2577 215.005 80.3021 215.178 80.3 215.354C80.2964 222.146 79.4905 228.913 77.8991 235.516C75.9233 243.054 72.7644 248.122 68.5208 250.572C59.4449 255.812 51.5459 251.551 48.8359 246.857C46.3137 242.699 46.1121 237.535 48.3025 233.193ZM60.6294 208.444C53.6327 206.525 48.1744 206.651 44.4158 208.821C36.5437 213.366 36.223 221.011 38.518 224.986C40.953 229.203 44.6622 231.288 49.8224 231.346C49.9747 231.365 50.1205 231.419 50.2485 231.504C50.4877 231.625 50.6683 231.837 50.7498 232.092C50.8294 232.348 50.8024 232.626 50.6751 232.863C48.1969 237.33 48.163 241.691 50.568 245.857C52.858 249.823 59.6487 253.385 67.5208 248.84C71.2794 246.67 74.1127 241.998 75.9494 234.979C77.4388 228.75 78.2074 222.371 78.24 215.966C72.6787 212.79 66.7694 210.266 60.6294 208.444Z" fill="white"/>
<path d="M59.201 217.19C59.1956 217.457 59.2977 217.716 59.4843 217.908C59.6709 218.099 59.9266 218.208 60.1941 218.21C63.0997 218.241 65.7733 219.803 67.2262 222.319C68.6791 224.836 68.6954 227.933 67.2691 230.464C67.0572 230.815 67.0803 231.259 67.3275 231.585C67.4921 231.794 67.7291 231.933 67.9915 231.975C68.2584 232.012 68.5286 231.939 68.7411 231.774C68.8588 231.687 68.9561 231.576 69.0261 231.447C70.7995 228.295 70.7778 224.44 68.9692 221.307C67.1605 218.175 63.8332 216.229 60.2161 216.188C59.948 216.184 59.6895 216.288 59.4986 216.476C59.3077 216.665 59.2005 216.922 59.201 217.19Z" fill="white"/>
</g>
<g opacity="0.6">
<path fill-rule="evenodd" clip-rule="evenodd" d="M89.7496 95.82L90.8546 93.9061L90.8583 93.9197C91.1344 93.4414 91.746 93.2776 92.2243 93.5537C92.7026 93.8298 92.8665 94.4414 92.5903 94.9197L91.4853 96.8336L93.3992 97.9386C93.8775 98.2148 94.0414 98.8264 93.7653 99.3047C93.4891 99.783 92.8775 99.9468 92.3992 99.6707L90.4853 98.5657L85.3653 107.434C85.2596 107.611 85.1048 107.755 84.9194 107.846C84.6777 107.958 84.4013 107.969 84.1515 107.876C83.9013 107.784 83.698 107.596 83.587 107.354L75.2986 89.5898C75.104 89.1926 75.1934 88.7148 75.5185 88.4148C75.8435 88.1149 76.327 88.0641 76.7073 88.29L89.7496 95.82ZM88.7446 97.5607L78.4562 91.6207L84.5846 104.766L88.7446 97.5607Z" fill="white"/>
<path d="M86.4044 108.034L81.8644 115.897L77.4148 103.444L77.3719 103.339C76.0269 100.567 72.7448 99.3375 69.9099 100.543C67.6485 101.569 66.1498 103.772 66.0264 106.252C65.903 108.732 67.1757 111.073 69.3241 112.318C69.8024 112.594 70.414 112.43 70.6902 111.952C70.9663 111.473 70.8024 110.862 70.3241 110.586C68.1191 109.306 67.3632 106.485 68.6331 104.275C69.1147 103.437 69.8494 102.774 70.7315 102.38C72.5563 101.622 74.6566 102.406 75.5386 104.174L80.7061 118.623C80.7937 118.875 80.9781 119.081 81.2183 119.196C81.4606 119.308 81.7374 119.318 81.9872 119.224C82.2087 119.146 82.3956 118.992 82.5151 118.79L88.1451 109.039C88.4212 108.561 88.2573 107.949 87.779 107.673C87.3007 107.397 86.6892 107.561 86.413 108.039L86.4044 108.034Z" fill="white"/>
<path d="M77.6072 115.691C77.3813 115.55 77.1082 115.504 76.8487 115.565C76.5918 115.623 76.3682 115.78 76.2265 116.002C70.7164 124.694 59.5102 127.785 50.3233 123.148L51.8233 120.55C52.0994 120.072 51.9356 119.46 51.4573 119.184C50.979 118.908 50.3674 119.072 50.0912 119.55L48.5912 122.148C40.0126 116.595 37.0241 105.453 41.672 96.3526L43.5946 97.4626C44.0729 97.7388 44.6845 97.5749 44.9606 97.0966C45.2368 96.6183 45.0729 96.0067 44.5946 95.7306L42.672 94.6206C48.0375 86.2386 58.7973 83.1517 67.7904 87.4143L64.0202 88.4245C63.7727 88.4957 63.5623 88.6596 63.4327 88.8821V88.8821C63.2375 89.2314 63.2693 89.6634 63.5136 89.9803C63.7578 90.2972 64.1674 90.4381 64.5549 90.3383L70.6957 88.7222C70.8657 88.695 71.0258 88.6243 71.1605 88.5171L71.2055 88.4392L71.3538 88.2823L71.3938 88.213C71.4336 88.1593 71.4672 88.1012 71.4938 88.0398L71.5588 87.9272C71.5903 87.7853 71.5884 87.6379 71.5533 87.4968L69.8246 81.291C69.7566 81.0332 69.5885 80.8132 69.3576 80.6799C69.1267 80.5465 68.8521 80.511 68.5948 80.581C68.0703 80.7272 67.7591 81.2661 67.8948 81.7935L68.9526 85.7413C58.6687 80.7288 46.2594 84.4976 40.5 94.3827L40.43 94.5039C34.415 104.944 37.9727 118.282 48.388 124.34L48.4486 124.375C48.4759 124.406 48.5123 124.427 48.5525 124.435C58.7415 130.288 71.7354 127.016 77.9386 117.037C78.2075 116.572 78.0612 115.978 77.6072 115.691Z" fill="white"/>
<path d="M55.4362 90.5123C55.1783 90.5802 54.9583 90.7483 54.825 90.9793C54.6917 91.2102 54.6561 91.4848 54.7262 91.742L57.852 103.408C57.3226 103.825 56.9736 104.43 56.877 105.097L51.4129 106.561C51.1631 106.629 50.9494 106.791 50.8168 107.013V107.013C50.6909 107.25 50.6599 107.525 50.7303 107.783C50.8764 108.308 51.4154 108.619 51.9427 108.483L57.4068 107.019C58.1247 107.949 59.3772 108.282 60.4622 107.831C61.5472 107.381 62.1951 106.258 62.0429 105.093C61.8907 103.928 60.9762 103.01 59.8118 102.853L56.6896 91.2013C56.6174 90.942 56.4438 90.7227 56.2079 90.593C55.972 90.4633 55.6938 90.4342 55.4362 90.5123Z" fill="white"/>
</g>
</svg>
